<svg width="32" height="32" viewBox="0 0 32 32" fill="none" xmlns="http://www.w3.org/2000/svg">
<g clip-path="url(#clip0_60_251)">
<path d="M32 16.001C32 7.16442 24.8366 0.000976562 16 0.000976562C7.16344 0.000976562 0 7.16442 0 16.001C0 24.8375 7.16344 32.001 16 32.001C24.8366 32.001 32 24.8375 32 16.001Z" fill="#DD2F30" fill-opacity="0.1"/>
<path d="M14.44 18.36C14.44 17.64 14.6 17.0467 14.92 16.58C15.2533 16.1 15.7333 15.58 16.36 15.02C16.84 14.5933 17.1933 14.2267 17.42 13.92C17.66 13.6 17.78 13.24 17.78 12.84C17.78 12.28 17.5533 11.8267 17.1 11.48C16.6467 11.1333 16.04 10.96 15.28 10.96C13.84 10.96 12.7533 11.4733 12.02 12.5L10.08 11.24C10.6533 10.4533 11.3933 9.85333 12.3 9.44C13.2067 9.01333 14.2733 8.8 15.5 8.8C16.9933 8.8 18.18 9.12667 19.06 9.78C19.9533 10.42 20.4 11.3067 20.4 12.44C20.4 12.9867 20.3067 13.4667 20.12 13.88C19.9467 14.2933 19.7333 14.6467 19.48 14.94C19.2267 15.22 18.8933 15.5467 18.48 15.92C17.9733 16.3733 17.5933 16.7733 17.34 17.12C17.1 17.4667 16.98 17.88 16.98 18.36H14.44ZM15.72 23.14C15.2533 23.14 14.8667 22.9933 14.56 22.7C14.2667 22.3933 14.12 22.02 14.12 21.58C14.12 21.14 14.2667 20.7733 14.56 20.48C14.8667 20.1867 15.2533 20.04 15.72 20.04C16.1733 20.04 16.5467 20.1867 16.84 20.48C17.1467 20.7733 17.3 21.14 17.3 21.58C17.3 22.02 17.1467 22.3933 16.84 22.7C16.5467 22.9933 16.1733 23.14 15.72 23.14Z" fill="#DD2F30"/>
</g>
<defs>
<clipPath id="clip0_60_251">
<rect width="32" height="32" fill="white"/>
</clipPath>
</defs>
</svg>
